<svg width="25" height="25" viewBox="0 0 25 25" fill="none" xmlns="http://www.w3.org/2000/svg">
<path d="M24.8985 11.3335C24.9327 11.7112 24.9564 12.0923 24.9564 12.4793C24.9564 12.0923 24.9327 11.7115 24.8985 11.3335Z" fill="#78B9A5"/>
<path d="M6.38625 11.2676C6.38625 11.2676 2.91607 24.0534 16.8249 24.1647C21.1888 22.5402 24.4045 18.5573 24.8918 13.7555C24.9255 13.4234 24.9355 13.0846 24.943 12.7452C24.9444 12.6559 24.9563 12.5691 24.9563 12.4793C24.9563 12.0926 24.9327 11.7113 24.8985 11.3335C21.2239 25.7992 4.96758 20.1331 6.38625 11.2676Z" fill="#78B9A5"/>
<path d="M13.5781 6.52175C13.5781 6.52175 0.628116 2.90526 0.827286 17.0257C1.49111 18.7321 2.52129 20.272 3.84516 21.5368C3.90079 21.5894 3.95837 21.6392 4.01456 21.6909C4.38903 22.0362 4.78421 22.3583 5.1979 22.6554C5.26216 22.7013 5.32252 22.7519 5.38705 22.7967C5.82465 23.0959 6.28095 23.3668 6.75315 23.6078C6.89029 23.6785 7.03132 23.743 7.1704 23.8089C7.57675 24.0003 7.99324 24.1693 8.418 24.3152C8.52231 24.3508 8.6219 24.3953 8.7276 24.4284C9.23683 24.5841 9.75559 24.7068 10.2806 24.7956C10.4395 24.8234 10.6 24.8468 10.7607 24.869C11.3054 24.9477 11.8547 24.9904 12.405 24.9967C12.4262 24.9967 12.4465 25.0001 12.4676 25.0001C12.8826 25.0001 13.2924 24.9778 13.6966 24.938C-0.833392 21.4729 4.6894 5.22548 13.5781 6.52175Z" fill="#78B9A5"/>
<path d="M18.6257 13.2181C18.6257 13.2181 21.6895 0.301582 7.89837 0.878508C3.27379 2.70525 0 7.20494 0 12.4782C0.00430052 13.0461 0.0471445 13.613 0.128237 14.1751C3.03067 -0.438352 19.5659 4.29444 18.6257 13.2181Z" fill="#78B9A5"/>
<path d="M12.0039 18.7765C12.0039 18.7765 24.9764 20.47 24.1644 8.1362C22.3989 3.38867 17.8402 0 12.4782 0C11.7189 0.00293412 10.9615 0.0749058 10.2153 0.215026C24.6701 1.98947 20.9132 18.9028 12.0039 18.7765Z" fill="#78B9A5"/>
<path d="M16.0793 12.4795C16.0793 13.1708 15.8743 13.8466 15.4902 14.4214C15.1061 14.9963 14.5602 15.4442 13.9214 15.7088C13.2827 15.9733 12.5799 16.0424 11.9018 15.9075C11.2238 15.7725 10.601 15.4395 10.1123 14.9506C9.62349 14.4617 9.29069 13.8388 9.15595 13.1607C9.02122 12.4826 9.09059 11.7798 9.35531 11.1412C9.62002 10.5025 10.0682 9.95672 10.6431 9.57279C11.218 9.18887 11.8939 8.98406 12.5853 8.98428C13.5121 8.9845 14.4008 9.35286 15.0561 10.0083C15.7114 10.6638 16.0794 11.5527 16.0793 12.4795V12.4795Z" fill="#609A9A"/>
</svg>
