<svg xmlns="http://www.w3.org/2000/svg" width="256" height="233" preserveAspectRatio="xMidYMid" xmlns:v="https://vecta.io/nano"><path d="M138.63 32.232c3.081 0 5.587 2.459 5.664 5.521l.002.144v64.845c0 3.081-2.459 5.587-5.521 5.664l-.144.002H85.754c-3.081 0-5.587-2.459-5.664-5.521l-.002-.144V37.897c0-3.081 2.459-5.587 5.521-5.664l.144-.002h52.876zm0 2.521H85.754a3.15 3.15 0 0 0-3.147 3.032l-.002.113v64.845c.003 1.701 1.351 3.086 3.037 3.147l.113.002h52.876c1.701-.003 3.086-1.351 3.147-3.037l.002-.113V37.897a3.15 3.15 0 0 0-3.15-3.145zM93.306 92.669v3.774h-3.779v-3.774h3.779zm42.179 0v3.774H95.198v-3.774h40.287zM93.306 76.302v3.774h-3.779v-3.774h3.779zm42.179 0v3.774H95.198v-3.774h40.287zM93.306 60.564v3.774h-3.779v-3.774h3.779zm42.179 0v3.774H95.198v-3.774h40.287zm0-14.48v3.779H89.528v-3.779h45.957zm3.145 75.537v.039c3.066 0 5.566 2.436 5.663 5.483l.003.143v64.845c0 3.081-2.459 5.587-5.521 5.664l-.144.002H85.754c-1.503 0-2.944-.597-4.006-1.659-1.022-1.022-1.613-2.393-1.657-3.833l-.003-.173v-64.845c0-3.081 2.459-5.587 5.521-5.664l.144-.002h52.876zm0 2.521H85.754a3.15 3.15 0 0 0-3.147 3.032l-.002.113v64.845c.003 1.701 1.351 3.086 3.037 3.147l.113.002h52.876c1.693-.003 3.075-1.339 3.147-3.018l.003-.112v-64.845a3.15 3.15 0 0 0-3.037-3.143l-.113-.002v-.02zm-45.323 57.932v3.779h-3.779v-3.779h3.779zm42.179.029v3.72H95.198v-3.72h40.287zm-42.179-16.397v3.779h-3.779v-3.779h3.779zm42.179.029v3.72H95.198v-3.72h40.287zm-42.179-15.763v3.774h-3.779v-3.774h3.779zm42.179.029v3.715H95.198v-3.715h40.287zm0-14.51v3.779H89.528v-3.779h45.957zm18.393-65.171v3.145h18.883v85.53h-18.883v3.15h18.883 3.15v-3.15-85.53-3.145h-3.15z" fill="#8e8f8f"/><path d="M19.332 14.795c3.724-6.107 9.857-9.669 16.053-11.737l.845-.273h0l.845-.255 1.263-.35.837-.213.417-.1.829-.189.412-.089.818-.167h0l.809-.153h0l.798-.139h0l.786-.127h0l.773-.114h0l.759-.102h0l.743-.091h0l.726-.081h0l.708-.071h0l1.024-.089h0l.975-.07h0l.922-.053h0l1.002-.043h0l.917-.026h0l.56-.009.517-.004h.471l.617.008.348.007.635.021.28.014v15.114c-13.368-1.272-19.333 2.765-21.964 7.069l-.237.404c-.341.607-.619 1.216-.845 1.813l-.143.396-.066.196-.121.389h0l-.107.383h0l-.095.376-.043.185-.077.365-.034.179-.061.351h0l-.051.34h0l-.042.329h0l-.047.47h0l-.031.439h0l-.015.344-.007.318v.29l.005.261.009.229.017.28.032.331v5.553l-.033 11.337-.04 8.169-.046 6.872-.051 5.808-.049 4.573-.058 4.451-.06 3.795-.077 4.021-.047 2.095-.051 1.979-.066 2.205-.023.69-.002 1.276-.007.781-.009.527-.021.799h0l-.031.771h0l-.025.47h0l-.031.472h0l-.037.474h0l-.068.713h0l-.055.476h0l-.063.477h0l-.071.477-.039.238-.085.476-.046.238-.1.475h0l-.11.474h0l-.122.472-.133.471-.146.469h0l-.158.466h0l-.172.463c-1.936 5.002-6.319 9.457-16.245 11.521 9.656 2.005 14.067 6.27 16.082 11.101l.185.462c.178.463.334.931.473 1.402l.132.472a21.23 21.23 0 0 1 .23.949l.099.477.045.239.084.478h0l.074.478h0l.066.478h0l.057.478h0l.05.477h0l.043.476h0l.036.475h0l.043.709h0l.022.47h0l.027.788h0l.012.521.008.516.006.765.002 1.271.068 2.213.06 2.338.056 2.507.051 2.654.054 3.253.074 5.375.051 4.555.025 2.563.054 6.546.058 9.712.04 10.512.015-.009v9.322l-.015.132-.017.198-.012.178-.014.331h0l-.005.261v.29l.007.318.015.344.03.433h0l.029.306h0l.058.482h0l.05.335h0l.059.346h0l.069.355.039.181.086.367.048.186.105.378h0l.118.383.064.194.139.39.154.394.169.397c2.099 4.707 7.637 9.792 21.961 8.627l.785-.069v15.114l-.401.019-.744.022-.612.01h-.727 0l-.545-.006-.59-.011-.633-.018-.822-.033h0l-.579-.029h0l-.603-.036h0l-.625-.043h0l-.646-.051h0l-.666-.059h0l-.685-.068h0l-.703-.077h0l-.719-.087h0l-.734-.097-.372-.053-.754-.114-.382-.061-.772-.132-.39-.07-.787-.151-.397-.08-.799-.171h0l-.806-.185-.811-.2-.815-.215c-7.491-2.043-15.359-6.078-19.407-13.987.878-9.722 4.876-18.01 12.057-23.169.338-.238.68-.47 1.027-.693l.391-.249a26.61 26.61 0 0 0-1.433.952c-7.167 5.149-11.165 13.437-12.043 23.12-1.802-3.638-2.746-7.641-2.76-11.701l-.09-4.167-.117-5.051-.146-5.913-.199-7.536-.183-6.536-.252-8.557-.284-9.166-.475-14.424-.116-3.344c-.281-7.572-3.32-11.26-6.483-13.041l-.373-.201-.186-.094-.372-.176c-.124-.056-.248-.109-.371-.16l-.369-.145c-.123-.046-.245-.089-.366-.13l-.362-.117-.357-.104-.283-.075-.278-.067-.274-.06-.268-.053-.391-.068h0l-.252-.038-.245-.032-.354-.039h0l-.311-.002-.637-.008c-.324-.004-.656-.006-.998 0l-.345.009v-17.713a25.21 25.21 0 0 0 2.292-.024l.354-.039.245-.032.252-.038.391-.068h0l.268-.053.274-.06.278-.067.283-.075.357-.104h0l.362-.117h0l.366-.13c3.676-1.375 7.824-4.908 8.155-13.816l.431-12.809.332-10.464.18-5.939.276-9.526.181-6.626.131-5.047.165-6.757.096-4.201.071-3.33c.11-5.249 1.403-9.509 3.457-12.968l.137-.228-.001-.011zm180.643.371V.051l.406-.019.564-.018.366-.007.646-.006h0 .493l.54.005.833.017h0l1.062.038h0l.569.027h0l.593.034h0l.931.064h0l.647.052h0l.666.06h0l.685.069h0l.702.078h0l.718.088h0l.732.098h0l.746.109h0l.758.121.383.065.775.139h0l.784.152h0l.792.165h0l.799.179h0l.805.193 1.216.318.814.231c7.61 2.235 15.433 6.593 19.107 15.028 1.398 3.297 2.131 6.838 2.155 10.419l.09 4.168.117 5.052.083 3.38.129 5.059.179 6.663.138 4.884.252 8.558.284 9.166.475 14.424.116 3.344c.286 7.698 3.422 11.38 6.641 13.126l.372.193.186.09.371.169h0l.369.153.184.071.365.131.181.061.359.111.177.051.526.135h0l.343.076.334.066h0l.325.056.252.038.245.032.354.039h0c.619.033 1.262.049 1.946.034l.345-.01v17.718a25.21 25.21 0 0 0-2.292.024l-.234.025-.242.03-.376.054h0l-.391.068h0l-.268.053-.274.06-.278.067-.283.075-.178.05h0l-.359.11-.181.06-.366.13-.184.071-.37.152c-3.527 1.519-7.286 5.13-7.6 13.593l-.431 12.803-.332 10.465-.18 5.939-.276 9.527-.181 6.626-.131 5.047-.165 6.757-.096 4.201-.071 3.33c-.028 3.115-.581 6.203-1.635 9.132l-.127.343.007.032c-3.769 9.735-12.886 14.312-21.304 16.442l-.826.202-.411.095-.816.179-.405.084-.804.158-.399.074-.789.138-.39.064-.772.119h0l-.758.107h0l-.743.096h0l-.727.086h0l-.71.076h0l-.692.066h0l-1 .083h0l-.64.045h0l-.916.053h0l-.859.039h0l-1.051.032h0l-.598.01-.549.004h-.498l-.445-.005-.389-.007-.473-.014-.411-.017-.142-.008v-15.114c13.995 1.332 19.876-3.156 22.312-7.675l.209-.405c.067-.135.13-.269.191-.404l.174-.402a13.61 13.61 0 0 0 .158-.4l.143-.396h0l.128-.392.059-.194.107-.383h0l.095-.376h0l.083-.369h0l.071-.36h0l.061-.351h0l.051-.34h0l.042-.329h0l.047-.47h0l.022-.296h0l.024-.487.007-.318v-.29l-.005-.261-.009-.229-.011-.196-.023-.283-.015-.132v-8.289l.023-7.717.038-7.963.044-6.711.059-6.851.068-6.148.048-3.575.045-2.879.059-3.302.043-2.09.046-1.988.049-1.875.066-2.166.002-1.271.007-.773.008-.522.012-.526.028-.796h0l.026-.535.029-.476h0l.035-.477h0l.041-.479h0l.048-.48h0l.056-.481h0l.064-.481.035-.241.077-.481h0l.087-.481h0l.097-.48h0l.108-.479c.132-.558.287-1.113.469-1.662l.163-.47a16.81 16.81 0 0 1 .793-1.847l.237-.452c2.285-4.198 6.725-7.8 15.354-9.593-10.882-2.259-15.103-7.388-16.739-12.962l-.132-.472a21.22 21.22 0 0 1-.23-.949l-.099-.476-.045-.239-.084-.478h0l-.074-.478h0l-.066-.478h0l-.057-.478h0l-.05-.477h0l-.043-.476h0l-.036-.475h0l-.043-.709h0l-.022-.47h0l-.027-.788h0l-.012-.52-.008-.516-.006-.765-.002-1.271-.046-1.477-.052-1.878-.058-2.417-.053-2.574-.049-2.71-.058-3.787-.069-5.446-.052-5.089-.049-5.896-.063-10.483-.041-11.359h0c.86-.475 1.693-.996 2.496-1.56 4.004-2.869 7.019-6.735 9.052-11.282l.14-.318c-2.035 4.686-5.1 8.667-9.207 11.606-.67.47-1.36.911-2.069 1.319l-.428.241v-8.435l.015-.132.017-.198.012-.178.014-.331h0l.005-.261v-.29l-.007-.318-.015-.344-.019-.285h0l-.041-.454h0l-.058-.482h0l-.05-.335h0l-.059-.346h0l-.069-.355-.039-.181-.086-.367-.048-.186-.105-.378h0l-.118-.383-.064-.194-.139-.39c-.049-.131-.1-.262-.154-.394l-.169-.397c-2.099-4.707-7.637-9.792-21.961-8.627l-.785.069z" fill="#fe0902"/><path d="M31.17 36.092l.462.314.469.3v-5.553l-.015-.132-.017-.198-.012-.178-.014-.331h0l-.005-.261v-.29l.007-.318.015-.344.019-.289h0l.026-.303h0l.033-.317h0l.042-.329h0l.051-.34h0l.061-.351h0l.071-.36.04-.183.089-.373h0l.101-.38.055-.192.121-.389.066-.196.143-.396c.226-.597.503-1.206.845-1.813l.237-.404c2.63-4.303 8.595-8.341 21.964-7.069V.3l-.28-.014-.481-.017-.322-.008L54.14.25h0l-.471-.001-.517.004-.855.016h0l-.782.025h0l-.841.037-.922.053h0l-.975.07h0l-.678.057h0l-1.054.103h0l-.726.081h0l-.743.091h0l-.759.102h0l-.773.114h0l-.786.127h0l-.798.139h0l-.809.153h0l-.818.167-.412.089-.829.189-.417.1-.837.213-1.263.35-.845.255h0l-.845.273c-6.196 2.068-12.329 5.631-16.053 11.737 1.204 8.917 5.134 16.518 11.838 21.297zm24.856 195.96v-15.114c-14.621 1.391-20.386-3.569-22.619-8.282l-.183-.403c-.087-.201-.168-.401-.243-.6l-.143-.396-.066-.196-.121-.389h0l-.107-.383h0l-.095-.376h0l-.083-.369h0l-.071-.36h0l-.061-.351h0l-.051-.34h0l-.042-.329h0l-.047-.47h0l-.031-.439h0l-.015-.344-.007-.318v-.29l.005-.261.009-.229.011-.196.023-.283.015-.14v-9.314c-.527.325-1.043.666-1.55 1.024-7.182 5.158-11.18 13.447-12.057 23.169 4.048 7.909 11.916 11.945 19.407 13.987l.815.215.811.2.806.185h0l.799.171h0l.791.157.392.074.777.138.385.064.761.12.376.055.741.103.365.047.719.087h0l.703.077h0l.685.068h0l.666.059h0l.646.051h0l.625.043h0l.603.036h0l.86.042h0l.542.02h0l.633.018.59.011.545.005.727-.001.612-.009.49-.013.656-.028zM238.107 17.33C234.198 8.358 225.596 4 217.55 1.901l-.803-.202h0l-.798-.188-.397-.089-.788-.167-.391-.079-.776-.147h0l-.767-.135h0l-.756-.123h0l-.744-.112h0L210.6.559h0l-.717-.09h0l-.701-.08h0l-.685-.071h0l-.667-.062h0l-.965-.078h0l-.919-.061h0l-.868-.046h0l-.814-.033h0l-.511-.015h0l-.615-.013-.568-.007-.519-.001-.467.003-.413.006-.512.013-.376.014-.311.015v15.114c14.621-1.391 20.386 3.569 22.619 8.282l.183.403a13.56 13.56 0 0 1 .243.6l.143.396.066.196.121.389h0l.107.383h0l.095.376h0l.083.369h0l.071.36h0l.061.351h0l.051.34h0l.042.329h0l.047.47h0l.031.439h0l.015.344.007.318v.29l-.005.261-.009.229-.017.28-.032.333v8.433c.86-.475 1.693-.996 2.496-1.56 6.499-4.651 10.39-11.911 11.716-20.448zm-11.072 177.257a26.84 26.84 0 0 0-3.125-1.916v8.289l.015.132.017.198.012.178.014.331h0l.005.261v.29l-.007.318-.024.487h0l-.022.296h0l-.047.47h0l-.042.329h0l-.051.34h0l-.061.351h0l-.071.36h0l-.083.369h0l-.095.376h0l-.107.383-.059.194-.128.392h0l-.143.396a13.61 13.61 0 0 1-.158.4l-.174.402c-.061.134-.125.269-.191.404l-.209.405c-2.436 4.519-8.317 9.007-22.312 7.675v15.114l.224.012.644.023h0l.791.014h0l.48.003.819-.005h0l.608-.011.655-.018.811-.032h0l.866-.045h0l.606-.038h0l.949-.071h0l.657-.057h0l.676-.066h0l.693-.075h0l.709-.085h0l.724-.095h0l.738-.105h0l.751-.116.38-.063.768-.134h0l.777-.147.392-.078.79-.166.397-.088.799-.187c8.556-2.074 17.965-6.637 21.809-16.568-1.521-7.933-5.353-14.641-11.472-19.025z" fill="#ffab00"/></svg>